<svg width="512" height="512" viewBox="0 0 512 512" xmlns="http://www.w3.org/2000/svg">
  <defs>
    <linearGradient id="icon512-gradient" x1="0%" y1="0%" x2="100%" y2="100%">
      <stop offset="0%" style="stop-color:#4f46e5;stop-opacity:1" />
      <stop offset="100%" style="stop-color:#7c3aed;stop-opacity:1" />
    </linearGradient>
  </defs>
  
  <!-- Background -->
  <rect width="512" height="512" rx="80" fill="url(#icon512-gradient)"/>
  
  <!-- Book/Learning icon -->
  <g transform="translate(256, 256)">
    <!-- Open book -->
    <path d="M -80 -40 L -80 60 Q -80 80 -60 85 L -5 95 L -5 -30 Q -5 -35 -10 -38 L -70 -45 Q -80 -47 -80 -40 Z" fill="white"/>
    <path d="M 80 -40 L 80 60 Q 80 80 60 85 L 5 95 L 5 -30 Q 5 -35 10 -38 L 70 -45 Q 80 -47 80 -40 Z" fill="white"/>
    
    <!-- Bookmark -->
    <path d="M -5 -50 L -5 95 M 5 -50 L 5 95" stroke="rgba(255,255,255,0.4)" stroke-width="3"/>
    
    <!-- Graduation cap -->
    <path d="M 0 -80 L -60 -60 L 0 -40 L 60 -60 Z" fill="white"/>
    <path d="M 50 -55 L 50 -30 L 0 -15 L -50 -30 L -50 -55" fill="rgba(255,255,255,0.8)"/>
  </g>
</svg>
