<svg width="192" height="192" viewBox="0 0 192 192" xmlns="http://www.w3.org/2000/svg">
  <defs>
    <linearGradient id="icon-gradient" x1="0%" y1="0%" x2="100%" y2="100%">
      <stop offset="0%" style="stop-color:#4f46e5;stop-opacity:1" />
      <stop offset="100%" style="stop-color:#7c3aed;stop-opacity:1" />
    </linearGradient>
  </defs>
  
  <!-- Background -->
  <rect width="192" height="192" rx="32" fill="url(#icon-gradient)"/>
  
  <!-- Book/Learning icon -->
  <g transform="translate(96, 96)">
    <!-- Open book -->
    <path d="M -30 -15 L -30 25 Q -30 32 -22 34 L -2 38 L -2 -12 Q -2 -14 -4 -15 L -26 -18 Q -30 -19 -30 -15 Z" fill="white"/>
    <path d="M 30 -15 L 30 25 Q 30 32 22 34 L 2 38 L 2 -12 Q 2 -14 4 -15 L 26 -18 Q 30 -19 30 -15 Z" fill="white"/>
    
    <!-- Graduation cap -->
    <path d="M 0 -30 L -22 -22 L 0 -14 L 22 -22 Z" fill="white"/>
    <path d="M 18 -20 L 18 -10 L 0 -4 L -18 -10 L -18 -20" fill="rgba(255,255,255,0.8)"/>
  </g>
</svg>
